# xmcd
#
# Track frame offsets:
#	150
#	16815
#	31762
#	48347
#	67037
#	84527
#	104595
#	126040
#	145127
#	164440
#	180902
#	199360
#	212887
#	230392
#	247892
#	262230
#	272890
#	286375
#
# Disc length: 4423 seconds
#
# Revision: 1
# Processed by: cddbd v1.5.2PL0 Copyright (c) Steve Scherf et al.
# Submitted via: audiograbber 1.83.01
#
DISCID=08114512
DTITLE=Shania Twain - Platinum
DYEAR=1900
DGENRE=
TTITLE0=Honey I'm Home
TTITLE1=Your Still The One
TTITLE2=Don't Be Stupid
TTITLE3=Any Man Of Mine
TTITLE4=From This Moment On
TTITLE5=Whose Bed Have Your Boots Been Under
TTITLE6=The Woman In Me
TTITLE7=Home Ain't Where His Heart Is
TTITLE8=You Win My Love
TTITLE9=Love Get's Me Every Time
TTITLE10=Man I Feel Like A Woman
TTITLE11=Come On Over
TTITLE12=If Your Not In It For Love
TTITLE13=God Bless The Child
TTITLE14=No One Needs To Know
TTITLE15=Dance With The One That Brought You
TTITLE16=What Made You Say That
TTITLE17=You Lay A Whole Lot Of Love On Me
EXTD=
EXTT0=
EXTT1=
EXTT2=
EXTT3=
EXTT4=
EXTT5=
EXTT6=
EXTT7=
EXTT8=
EXTT9=
EXTT10=
EXTT11=
EXTT12=
EXTT13=
EXTT14=
EXTT15=
EXTT16=
EXTT17=
PLAYORDER=
